<?xml version="1.0" encoding="UTF-8" standalone="no"?>
<!-- Created with Inkscape (http://www.inkscape.org/) -->

<svg
   version="1.1"
   id="svg1"
   width="673.33331"
   height="428"
   viewBox="0 0 673.33331 428"
   sodipodi:docname="PRMconnecting4.svg"
   inkscape:version="1.3.2 (091e20e, 2023-11-25)"
   xmlns:inkscape="http://www.inkscape.org/namespaces/inkscape"
   xmlns:sodipodi="http://sodipodi.sourceforge.net/DTD/sodipodi-0.dtd"
   xmlns="http://www.w3.org/2000/svg"
   xmlns:svg="http://www.w3.org/2000/svg">
  <sodipodi:namedview
     id="namedview1"
     pagecolor="#505050"
     bordercolor="#eeeeee"
     borderopacity="1"
     inkscape:showpageshadow="0"
     inkscape:pageopacity="0"
     inkscape:pagecheckerboard="0"
     inkscape:deskcolor="#505050"
     inkscape:zoom="0.92599012"
     inkscape:cx="422.79069"
     inkscape:cy="350.97567"
     inkscape:window-width="1834"
     inkscape:window-height="1016"
     inkscape:window-x="0"
     inkscape:window-y="0"
     inkscape:window-maximized="1"
     inkscape:current-layer="g1">
    <inkscape:page
       x="0"
       y="0"
       id="page1"
       width="673.33331"
       height="428"
       margin="0"
       bleed="0" />
  </sodipodi:namedview>
  <defs
     id="defs1" />
  <g
     id="g1"
     inkscape:groupmode="layer"
     inkscape:label="">
    <path
       id="path1"
       d="m 54.728806,380.82493 c 0,6.43733 -5.218667,11.656 -11.656,11.656 -6.437333,0 -11.652,-5.21867 -11.652,-11.656 0,-6.43734 5.214667,-11.656 11.652,-11.656 6.437333,0 11.656,5.21866 11.656,11.656 z"
       style="fill:#008000;fill-opacity:1;fill-rule:nonzero;stroke:none;stroke-width:1.33333" />
    <path
       id="path3"
       d="m 77.271458,269.64181 c 0,6.43734 -5.214667,11.656 -11.652,11.656 -6.437333,0 -11.656,-5.21866 -11.656,-11.656 0,-6.43733 5.218667,-11.656 11.656,-11.656 6.437333,0 11.652,5.21867 11.652,11.656 z"
       style="fill:#0000ff;fill-opacity:1;fill-rule:nonzero;stroke:none;stroke-width:1.33333" />
    <path
       id="path3-4"
       d="m 203.46066,199.26594 c 0,6.43734 -5.21467,11.656 -11.652,11.656 -6.43734,0 -11.656,-5.21866 -11.656,-11.656 0,-6.43733 5.21866,-11.656 11.656,-11.656 6.43733,0 11.652,5.21867 11.652,11.656 z"
       style="fill:#0000ff;fill-opacity:1;fill-rule:nonzero;stroke:none;stroke-width:1.33333" />
    <path
       id="path3-0"
       d="m 303.56445,299.88744 c 0,6.43734 -5.21467,11.656 -11.652,11.656 -6.43734,0 -11.656,-5.21866 -11.656,-11.656 0,-6.43733 5.21866,-11.656 11.656,-11.656 6.43733,0 11.652,5.21867 11.652,11.656 z"
       style="fill:#0000ff;fill-opacity:1;fill-rule:nonzero;stroke:none;stroke-width:1.33333" />
    <path
       id="path3-0-9"
       d="m 412.14018,330.87725 c 0,6.43734 -5.21467,11.656 -11.652,11.656 -6.43734,0 -11.656,-5.21866 -11.656,-11.656 0,-6.43733 5.21866,-11.656 11.656,-11.656 6.43733,0 11.652,5.21867 11.652,11.656 z"
       style="fill:#0000ff;fill-opacity:1;fill-rule:nonzero;stroke:none;stroke-width:1.33333" />
    <path
       id="path3-0-9-1"
       d="m 399.48809,247.83433 c 0,6.43734 -5.21467,11.656 -11.652,11.656 -6.43734,0 -11.656,-5.21866 -11.656,-11.656 0,-6.43733 5.21866,-11.656 11.656,-11.656 6.43733,0 11.652,5.21867 11.652,11.656 z"
       style="fill:#0000ff;fill-opacity:1;fill-rule:nonzero;stroke:none;stroke-width:1.33333" />
    <path
       id="path3-0-9-4"
       d="m 494.25926,200.49323 c 0,6.43734 -5.21467,11.656 -11.652,11.656 -6.43734,0 -11.656,-5.21866 -11.656,-11.656 0,-6.43733 5.21866,-11.656 11.656,-11.656 6.43733,0 11.652,5.21867 11.652,11.656 z"
       style="fill:#0000ff;fill-opacity:1;fill-rule:nonzero;stroke:none;stroke-width:1.33333" />
    <path
       id="path3-0-9-0"
       d="m 248.16137,124.85781 c 0,6.43734 -5.21467,11.656 -11.652,11.656 -6.43734,0 -11.656,-5.21866 -11.656,-11.656 0,-6.43733 5.21866,-11.656 11.656,-11.656 6.43733,0 11.652,5.21867 11.652,11.656 z"
       style="fill:#0000ff;fill-opacity:1;fill-rule:nonzero;stroke:none;stroke-width:1.33333" />
    <path
       id="path3-6"
       d="m 354.06295,197.08885 c 0,6.43734 -5.21467,11.656 -11.652,11.656 -6.43734,0 -11.656,-5.21866 -11.656,-11.656 0,-6.43733 5.21866,-11.656 11.656,-11.656 6.43733,0 11.652,5.21867 11.652,11.656 z"
       style="fill:#0000ff;fill-opacity:1;fill-rule:nonzero;stroke:none;stroke-width:1.33333" />
    <path
       id="path3-1"
       d="m 322.14041,68.55994 c 0,6.43734 -5.21467,11.656 -11.652,11.656 -6.43734,0 -11.656,-5.21866 -11.656,-11.656 0,-6.43733 5.21866,-11.656 11.656,-11.656 6.43733,0 11.652,5.21867 11.652,11.656 z"
       style="fill:#0000ff;fill-opacity:1;fill-rule:nonzero;stroke:none;stroke-width:1.33333" />
    <path
       id="path3-65"
       d="m 413.14848,111.65215 c 0,6.43734 -5.21467,11.656 -11.652,11.656 -6.43734,0 -11.656,-5.21866 -11.656,-11.656 0,-6.43733 5.21866,-11.655999 11.656,-11.655999 6.43733,0 11.652,5.218669 11.652,11.655999 z"
       style="fill:#0000ff;fill-opacity:1;fill-rule:nonzero;stroke:none;stroke-width:1.33333" />
    <path
       id="path3-9"
       d="m 624.63345,179.42783 c 0,6.43734 -5.21467,11.656 -11.652,11.656 -6.43734,0 -11.656,-5.21866 -11.656,-11.656 0,-6.43733 5.21866,-11.656 11.656,-11.656 6.43733,0 11.652,5.21867 11.652,11.656 z"
       style="fill:#0000ff;fill-opacity:1;fill-rule:nonzero;stroke:none;stroke-width:1.33333" />
    <path
       id="path3-95"
       d="m 520.77526,104.59212 c 0,6.43734 -5.21467,11.656 -11.652,11.656 -6.43734,0 -11.656,-5.21866 -11.656,-11.656 0,-6.437329 5.21866,-11.655999 11.656,-11.655999 6.43733,0 11.652,5.21867 11.652,11.655999 z"
       style="fill:#0000ff;fill-opacity:1;fill-rule:nonzero;stroke:none;stroke-width:1.33333" />
    <path
       id="path3-17"
       d="m 45.144634,179.48455 c 0,6.43734 -5.21467,11.656 -11.652,11.656 -6.43734,0 -11.656,-5.21866 -11.656,-11.656 0,-6.43733 5.21866,-11.656 11.656,-11.656 6.43733,0 11.652,5.21867 11.652,11.656 z"
       style="fill:#0000ff;fill-opacity:1;fill-rule:nonzero;stroke:none;stroke-width:1.33333" />
    <path
       id="path3-61"
       d="m 155.51614,327.88735 c 0,6.43734 -5.21467,11.656 -11.652,11.656 -6.43733,0 -11.656,-5.21866 -11.656,-11.656 0,-6.43733 5.21867,-11.656 11.656,-11.656 6.43733,0 11.652,5.21867 11.652,11.656 z"
       style="fill:#0000ff;fill-opacity:1;fill-rule:nonzero;stroke:none;stroke-width:1.33333" />
    <path
       id="path43"
       d="m 23.70243,396.01435 c 0,-0.12533 -0.104,-0.25067 -0.249334,-0.25067 -0.208,0 -1.292,1 -1.813333,1.95867 -0.498667,-1.22933 -1.353333,-1.97867 -2.541333,-1.97867 -3.104,0 -6.458667,4.02 -6.458667,8.104 0,2.72934 1.584,4.312 3.458667,4.312 1.458666,0 2.666666,-1.104 3.250666,-1.72933 l 0.02,0.0213 -1.041333,4.14534 -0.249333,0.98 c -0.250667,0.83333 -0.646667,0.83333 -1.958667,0.85333 -0.292,0 -0.562667,0 -0.562667,0.52133 0,0.208 0.166667,0.27067 0.354667,0.27067 0.374667,0 0.874667,-0.0413 1.270667,-0.0413 h 2.812 c 0.396,0 0.874666,0.0413 1.292,0.0413 0.166666,0 0.478666,0 0.478666,-0.52133 0,-0.27067 -0.208,-0.27067 -0.624,-0.27067 -1.292,0 -1.376,-0.18667 -1.376,-0.416 0,-0.12533 0.02133,-0.16667 0.104,-0.52133 z m -3.874667,8.604 c -0.145333,0.45867 -0.145333,0.52133 -0.541333,1.04133 -0.604,0.77067 -1.812,1.95867 -3.104,1.95867 -1.125334,0 -1.770667,-1.02133 -1.770667,-2.64667 0,-1.52 0.853333,-4.604 1.396,-5.74933 0.937333,-1.93733 2.228,-2.93733 3.290667,-2.93733 1.813333,0 2.188,2.27066 2.188,2.47866 0,0.0427 -0.084,0.396 -0.125334,0.45867 z"
       style="fill:#000000;fill-opacity:1;fill-rule:nonzero;stroke:none;stroke-width:1.33333" />
    <path
       id="path44"
       d="m 29.786429,403.93568 c 0,-0.35333 0,-0.43733 -0.188,-0.43733 -0.145333,0 -0.52,0.41733 -0.645333,0.584 -0.604,-0.48 -1.188,-0.584 -1.812,-0.584 -2.313333,0 -3,1.25067 -3,2.312 0,0.20933 0,0.876 0.728,1.54267 0.625333,0.54133 1.272,0.66666 2.146667,0.83333 1.041333,0.208 1.290666,0.27067 1.770666,0.66667 0.354667,0.27066 0.604,0.708 0.604,1.22933 0,0.83333 -0.478666,1.74933 -2.166666,1.74933 -1.250667,0 -2.188,-0.72933 -2.604,-2.64533 -0.06267,-0.33333 -0.06267,-0.35467 -0.084,-0.376 -0.04133,-0.0827 -0.124,-0.0827 -0.186667,-0.0827 -0.208,0 -0.208,0.104 -0.208,0.43734 v 2.604 c 0,0.35466 0,0.43733 0.186667,0.43733 0.104,0 0.125333,-0.02 0.458666,-0.416 0.08267,-0.12533 0.08267,-0.16667 0.374667,-0.48 0.729333,0.896 1.750667,0.896 2.084,0.896 2,0 3,-1.104 3,-2.624 0,-1.02133 -0.625333,-1.64667 -0.792,-1.81333 -0.688,-0.58267 -1.208,-0.708 -2.48,-0.93734 -0.561333,-0.104 -1.957333,-0.37466 -1.957333,-1.52133 0,-0.604 0.396,-1.47867 2.125333,-1.47867 2.082667,0 2.186667,1.77067 2.228,2.37467 0.02133,0.14667 0.146667,0.14667 0.209333,0.14667 0.208,0 0.208,-0.084 0.208,-0.43734 z"
       style="fill:#000000;fill-opacity:1;fill-rule:nonzero;stroke:none;stroke-width:1.33333" />
    <path
       id="path45"
       d="m 34.114429,404.33168 h 2.708 v -0.56266 h -2.708 v -3.52 h -0.417333 c -0.02,1.812 -0.708,3.64533 -2.437333,3.708 v 0.37466 h 1.625333 v 5.312 c 0,2.12534 1.396,2.56267 2.417333,2.56267 1.208,0 1.833333,-1.18667 1.833333,-2.56267 v -1.08266 h -0.417333 v 1.04133 c 0,1.37467 -0.562666,2.188 -1.292,2.188 -1.312,0 -1.312,-1.77067 -1.312,-2.104 z"
       style="fill:#000000;fill-opacity:1;fill-rule:nonzero;stroke:none;stroke-width:1.33333" />
    <path
       id="path46"
       d="m 45.562429,406.91568 c 0,-1.04266 0,-1.792 -0.833333,-2.54266 -0.666667,-0.624 -1.521334,-0.87467 -2.374667,-0.87467 -1.562667,0 -2.770667,1.02133 -2.770667,2.27067 0,0.54133 0.353334,0.81333 0.812,0.81333 0.458667,0 0.770667,-0.31333 0.770667,-0.772 0,-0.79067 -0.688,-0.79067 -0.978667,-0.79067 0.457334,-0.81333 1.374667,-1.14666 2.124,-1.14666 0.896,0 2.021334,0.72933 2.021334,2.43733 v 0.772 c -3.854667,0.0613 -5.312,1.66667 -5.312,3.14533 0,1.5 1.770666,1.97867 2.937333,1.97867 1.249333,0 2.125333,-0.77067 2.478667,-1.68667 0.084,0.916 0.666666,1.604 1.5,1.604 0.396,0 1.5,-0.27066 1.5,-1.81333 v -1.06133 h -0.416 v 1.06133 c 0,1.10533 -0.458667,1.25067 -0.729334,1.25067 -0.729333,0 -0.729333,-1.02134 -0.729333,-1.292 z m -1.229333,2.416 c 0,1.87467 -1.396,2.5 -2.229334,2.5 -0.937333,0 -1.708,-0.688 -1.708,-1.604 0,-2.52133 3.249334,-2.75066 3.937334,-2.792 z"
       style="fill:#000000;fill-opacity:1;fill-rule:nonzero;stroke:none;stroke-width:1.33333" />
    <path
       id="path47"
       d="m 50.739762,407.56102 c 0,-1.85467 0.770667,-3.584 2.249333,-3.584 0.146667,0 0.188,0 0.270667,0 -0.166667,0.084 -0.457333,0.20933 -0.457333,0.70933 0,0.56267 0.437333,0.77067 0.728,0.77067 0.396,0 0.772,-0.25067 0.772,-0.77067 0,-0.56267 -0.521334,-1.104 -1.333334,-1.104 -1.625333,0 -2.188,1.77067 -2.292,2.124 h -0.02133 v -2.124 l -2.562666,0.208 v 0.56267 c 1.292,0 1.437333,0.124 1.437333,1.06266 v 5.18667 c 0,0.85467 -0.208,0.85467 -1.437333,0.85467 v 0.56266 c 0.521333,-0.0427 1.584,-0.0427 2.146666,-0.0427 0.52,0 1.874667,0 2.333333,0.0427 v -0.56266 h -0.396 c -1.396,0 -1.437333,-0.208 -1.437333,-0.896 z"
       style="fill:#000000;fill-opacity:1;fill-rule:nonzero;stroke:none;stroke-width:1.33333" />
    <path
       id="path48"
       d="m 58.046429,404.33168 h 2.708 v -0.56266 h -2.708 v -3.52 h -0.416 c -0.02133,1.812 -0.709334,3.64533 -2.437334,3.708 v 0.37466 h 1.624 v 5.312 c 0,2.12534 1.396,2.56267 2.417334,2.56267 1.208,0 1.833333,-1.18667 1.833333,-2.56267 v -1.08266 h -0.417333 v 1.04133 c 0,1.37467 -0.562667,2.188 -1.290667,2.188 -1.313333,0 -1.313333,-1.77067 -1.313333,-2.104 z"
       style="fill:#000000;fill-opacity:1;fill-rule:nonzero;stroke:none;stroke-width:1.33333" />
    <rect
       style="fill:none;fill-opacity:1;fill-rule:evenodd;stroke:#000000;stroke-width:0.986004;stroke-dasharray:none"
       id="rect75"
       width="664.08508"
       height="419.90192"
       x="3.4770291"
       y="4.192925"
       sodipodi:insensitive="true" />
    <path
       id="path1-3"
       d="m 633.39981,50.118212 c 0,6.43733 -5.21866,11.656 -11.656,11.656 -6.43733,0 -11.652,-5.21867 -11.652,-11.656 0,-6.43734 5.21467,-11.656 11.652,-11.656 6.43734,0 11.656,5.21866 11.656,11.656 z"
       style="fill:#ff0000;fill-opacity:1;fill-rule:nonzero;stroke:none;stroke-width:1.33333" />
    <g
       inkscape:label=""
       transform="translate(613.30216,11.985277)"
       id="g75">
      <g
         fill="#000000"
         fill-opacity="1"
         id="g6"
         transform="matrix(1.33333,0,0,1.33333,-3.74067,-2.37283)">
        <g
           id="use5"
           transform="translate(1.993,10.889)">
          <path
             d="m 9.109375,-8.90625 c 0,-0.09375 -0.078125,-0.1875 -0.1875,-0.1875 -0.15625,0 -0.96875,0.75 -1.359375,1.46875 -0.375,-0.921875 -1.015625,-1.484375 -1.90625,-1.484375 -2.328125,0 -4.84375,3.015625 -4.84375,6.078125 0,2.046875 1.1875,3.234375 2.59375,3.234375 1.09375,0 2,-0.828125 2.4375,-1.296875 l 0.015625,0.015625 -0.78125,3.109375 -0.1875,0.734375 c -0.1875,0.625 -0.484375,0.625 -1.46875,0.640625 C 3.203125,3.40625 3,3.40625 3,3.796875 3,3.953125 3.125,4 3.265625,4 3.546875,4 3.921875,3.96875 4.21875,3.96875 H 6.328125 C 6.625,3.96875 6.984375,4 7.296875,4 7.421875,4 7.65625,4 7.65625,3.609375 7.65625,3.40625 7.5,3.40625 7.1875,3.40625 6.21875,3.40625 6.15625,3.265625 6.15625,3.09375 6.15625,3 6.171875,2.96875 6.234375,2.703125 Z m -2.90625,6.453125 C 6.09375,-2.109375 6.09375,-2.0625 5.796875,-1.671875 5.34375,-1.09375 4.4375,-0.203125 3.46875,-0.203125 c -0.84375,0 -1.328125,-0.765625 -1.328125,-1.984375 0,-1.140625 0.640625,-3.453125 1.046875,-4.3125 0.703125,-1.453125 1.671875,-2.203125 2.46875,-2.203125 1.359375,0 1.640625,1.703125 1.640625,1.859375 0,0.03125 -0.0625,0.296875 -0.09375,0.34375 z m 0,0"
             id="path9" />
        </g>
      </g>
      <g
         fill="#000000"
         fill-opacity="1"
         id="g9"
         transform="matrix(1.33333,0,0,1.33333,-3.74067,-2.37283)">
        <g
           id="use6"
           transform="translate(10.963,13.988)">
          <path
             d="m 1.703125,-2.59375 c 0.671875,0.4375 1.25,0.4375 1.40625,0.4375 1.296875,0 2.25,-0.96875 2.25,-2.078125 C 5.359375,-4.625 5.25,-5.15625 4.796875,-5.625 5.34375,-6.203125 6.03125,-6.203125 6.09375,-6.203125 c 0.0625,0 0.125,0 0.1875,0.03125 -0.140625,0.0625 -0.21875,0.203125 -0.21875,0.359375 0,0.203125 0.140625,0.375 0.375,0.375 0.125,0 0.375,-0.078125 0.375,-0.390625 0,-0.25 -0.203125,-0.65625 -0.703125,-0.65625 -0.75,0 -1.296875,0.453125 -1.5,0.671875 -0.4375,-0.328125 -0.9375,-0.515625 -1.484375,-0.515625 -1.28125,0 -2.25,0.984375 -2.25,2.078125 0,0.828125 0.5,1.359375 0.640625,1.484375 -0.171875,0.21875 -0.421875,0.625 -0.421875,1.1875 0,0.828125 0.5,1.1875 0.609375,1.265625 -0.65625,0.1875 -1.3125,0.703125 -1.3125,1.453125 0,0.984375 1.34375,1.796875 3.109375,1.796875 1.703125,0 3.125,-0.75 3.125,-1.828125 0,-0.359375 -0.09375,-1.203125 -0.953125,-1.65625 -0.734375,-0.375 -1.453125,-0.375 -2.6875,-0.375 -0.875,0 -0.96875,0 -1.234375,-0.265625 -0.140625,-0.140625 -0.265625,-0.421875 -0.265625,-0.71875 0,-0.25 0.078125,-0.484375 0.21875,-0.6875 z M 3.125,-2.453125 c -1.265625,0 -1.265625,-1.453125 -1.265625,-1.78125 0,-0.25 0,-0.84375 0.25,-1.234375 0.265625,-0.40625 0.703125,-0.5625 1,-0.5625 1.265625,0 1.265625,1.453125 1.265625,1.78125 0,0.265625 0,0.84375 -0.25,1.234375 -0.265625,0.421875 -0.703125,0.5625 -1,0.5625 z m 0.390625,5.09375 C 2.140625,2.640625 1.09375,1.9375 1.09375,1.125 1.09375,1 1.125,0.4375 1.65625,0.078125 1.984375,-0.125 2.109375,-0.125 3.109375,-0.125 c 1.1875,0 2.8125,0 2.8125,1.25 0,0.84375 -1.09375,1.515625 -2.40625,1.515625 z m 0,0"
             id="path10" />
        </g>
        <g
           id="use7"
           transform="translate(17.9869,13.988)">
          <path
             d="m 6.578125,-3.0625 c 0,-1.859375 -1.40625,-3.328125 -3.0625,-3.328125 -1.71875,0 -3.078125,1.515625 -3.078125,3.328125 0,1.828125 1.421875,3.203125 3.0625,3.203125 1.6875,0 3.078125,-1.40625 3.078125,-3.203125 z m -3.0625,2.890625 c -0.53125,0 -1.171875,-0.234375 -1.59375,-0.9375 C 1.53125,-1.75 1.515625,-2.59375 1.515625,-3.203125 c 0,-0.546875 0,-1.421875 0.453125,-2.0625 C 2.359375,-5.875 3,-6.109375 3.5,-6.109375 c 0.5625,0 1.15625,0.25 1.546875,0.8125 C 5.5,-4.640625 5.5,-3.734375 5.5,-3.203125 c 0,0.5 0,1.390625 -0.375,2.0625 -0.40625,0.703125 -1.0625,0.96875 -1.609375,0.96875 z m 0,0"
             id="path11" />
        </g>
        <g
           id="use8"
           transform="translate(25.010799,13.988)">
          <path
             d="m 5.53125,-3.828125 c 0,-0.78125 0,-1.34375 -0.625,-1.90625 -0.5,-0.46875 -1.140625,-0.65625 -1.78125,-0.65625 -1.171875,0 -2.078125,0.765625 -2.078125,1.703125 0,0.40625 0.265625,0.609375 0.609375,0.609375 C 2,-4.078125 2.234375,-4.3125 2.234375,-4.65625 2.234375,-5.25 1.71875,-5.25 1.5,-5.25 c 0.34375,-0.609375 1.03125,-0.859375 1.59375,-0.859375 0.671875,0 1.515625,0.546875 1.515625,1.828125 v 0.578125 C 1.71875,-3.65625 0.625,-2.453125 0.625,-1.34375 c 0,1.125 1.328125,1.484375 2.203125,1.484375 0.9375,0 1.59375,-0.578125 1.859375,-1.265625 0.0625,0.6875 0.5,1.203125 1.125,1.203125 0.296875,0 1.125,-0.203125 1.125,-1.359375 V -2.078125 H 6.625 v 0.796875 c 0,0.828125 -0.34375,0.9375 -0.546875,0.9375 -0.546875,0 -0.546875,-0.765625 -0.546875,-0.96875 z m -0.921875,1.8125 c 0,1.40625 -1.046875,1.875 -1.671875,1.875 -0.703125,0 -1.28125,-0.515625 -1.28125,-1.203125 0,-1.890625 2.4375,-2.0625 2.953125,-2.09375 z m 0,0"
             id="path12" />
        </g>
        <g
           id="use9"
           transform="translate(32.034698,13.988)">
          <path
             d="m 2.46875,-9.953125 -2,0.15625 V -9.375 c 0.984375,0 1.09375,0.09375 1.09375,0.796875 V -1.0625 c 0,0.640625 -0.15625,0.640625 -1.09375,0.640625 V 0 c 0.40625,-0.03125 1.109375,-0.03125 1.546875,-0.03125 0.421875,0 1.140625,0 1.546875,0.03125 v -0.421875 c -0.921875,0 -1.09375,0 -1.09375,-0.640625 z m 0,0"
             id="path13" />
        </g>
      </g>
    </g>
    <rect
       style="fill:#000000;fill-opacity:1;fill-rule:evenodd;stroke:#000000;stroke-width:0.746312;stroke-dasharray:none"
       id="rect85"
       width="11.197948"
       height="142.58275"
       x="189.995"
       y="281.1196" />
    <rect
       style="fill:#000000;fill-opacity:1;fill-rule:evenodd;stroke:#000000;stroke-width:0.826316;stroke-dasharray:none"
       id="rect85-2"
       width="11.117944"
       height="176.04843"
       x="425.80362"
       y="4.5282516" />
    <path
       style="fill:#000000;fill-opacity:1;fill-rule:evenodd;stroke:#000000;stroke-width:1;stroke-dasharray:none"
       d="M 17.960041,90.912823 80.383184,146.87799 172.96047,128.90303 240.52315,35.061005 88.681614,14.553568 Z"
       id="path86" />
    <path
       style="fill:#000000;fill-opacity:1;fill-rule:evenodd;stroke:#000000;stroke-width:0.591363;stroke-dasharray:none"
       d="m 420.68046,280.90455 112.03895,-67.2957 29.37021,55.19835 -50.30331,31.85388 z"
       id="path87" />
    <path
       id="path3-0-5"
       d="m 329.62937,385.0599 c 0,6.43734 -5.21467,11.656 -11.652,11.656 -6.43734,0 -11.656,-5.21866 -11.656,-11.656 0,-6.43733 5.21866,-11.656 11.656,-11.656 6.43733,0 11.652,5.21867 11.652,11.656 z"
       style="fill:#0000ff;fill-opacity:1;fill-rule:nonzero;stroke:none;stroke-width:1.33333" />
    <path
       id="path3-0-7"
       d="m 516.77838,396.13413 c 0,6.43734 -5.21467,11.656 -11.652,11.656 -6.43734,0 -11.656,-5.21866 -11.656,-11.656 0,-6.43733 5.21866,-11.656 11.656,-11.656 6.43733,0 11.652,5.21867 11.652,11.656 z"
       style="fill:#0000ff;fill-opacity:1;fill-rule:nonzero;stroke:none;stroke-width:1.33333" />
    <path
       id="path3-0-3"
       d="m 569.26838,321.41533 c 0,6.43734 -5.21467,11.656 -11.652,11.656 -6.43734,0 -11.656,-5.21866 -11.656,-11.656 0,-6.43733 5.21866,-11.656 11.656,-11.656 6.43733,0 11.652,5.21867 11.652,11.656 z"
       style="fill:#0000ff;fill-opacity:1;fill-rule:nonzero;stroke:none;stroke-width:1.33333" />
    <path
       id="path3-0-2"
       d="m 626.92483,380.69516 c 0,6.43734 -5.21467,11.656 -11.652,11.656 -6.43734,0 -11.656,-5.21866 -11.656,-11.656 0,-6.43733 5.21866,-11.656 11.656,-11.656 6.43733,0 11.652,5.21867 11.652,11.656 z"
       style="fill:#0000ff;fill-opacity:1;fill-rule:nonzero;stroke:none;stroke-width:1.33333" />
    <path
       id="path3-0-8"
       d="m 641.308,271.26762 c 0,6.43734 -5.21467,11.656 -11.652,11.656 -6.43734,0 -11.656,-5.21866 -11.656,-11.656 0,-6.43733 5.21866,-11.656 11.656,-11.656 6.43733,0 11.652,5.21867 11.652,11.656 z"
       style="fill:#0000ff;fill-opacity:1;fill-rule:nonzero;stroke:none;stroke-width:1.33333" />
    <path
       style="fill:none;fill-rule:evenodd;stroke:#000000;stroke-width:1px;stroke-linecap:butt;stroke-linejoin:miter;stroke-opacity:1"
       d="M 45.391333,369.39954 63.300931,281.0672"
       id="path88"
       inkscape:connector-type="polyline"
       inkscape:connector-curvature="0"
       inkscape:connection-start="#path1"
       inkscape:connection-end="#path3" />
    <path
       style="fill:none;fill-rule:evenodd;stroke:#000000;stroke-width:1px;stroke-linecap:butt;stroke-linejoin:miter;stroke-opacity:1"
       d="m 74.967494,276.602 59.545536,44.32585"
       id="path89"
       inkscape:connector-type="polyline"
       inkscape:connector-curvature="0"
       inkscape:connection-end="#path3-61"
       inkscape:connection-start="#path3" />
    <path
       style="fill:none;fill-rule:evenodd;stroke:#000000;stroke-width:1px;stroke-linecap:butt;stroke-linejoin:miter;stroke-opacity:1"
       d="M 133.54247,333.30766 53.394474,375.40462"
       id="path90"
       inkscape:connector-type="polyline"
       inkscape:connector-curvature="0"
       inkscape:connection-end="#path1"
       inkscape:connection-start="#path3-61" />
    <path
       style="fill:none;fill-rule:evenodd;stroke:#000000;stroke-width:1px;stroke-linecap:butt;stroke-linejoin:miter;stroke-opacity:1"
       d="M 147.93463,316.96204 187.7346,210.19011"
       id="path91"
       inkscape:connector-type="polyline"
       inkscape:connector-curvature="0"
       inkscape:connection-end="#path3-4"
       inkscape:connection-start="#path3-61" />
    <path
       style="fill:none;fill-rule:evenodd;stroke:#000000;stroke-width:1px;stroke-linecap:butt;stroke-linejoin:miter;stroke-opacity:1"
       d="M 180.24136,197.82087 45.055997,180.92963"
       id="path92"
       inkscape:connector-type="polyline"
       inkscape:connector-curvature="0"
       inkscape:connection-start="#path3-4"
       inkscape:connection-end="#path3-17" />
    <path
       style="fill:none;fill-rule:evenodd;stroke:#000000;stroke-width:1px;stroke-linecap:butt;stroke-linejoin:miter;stroke-opacity:1"
       d="m 37.404403,190.46773 24.299684,68.19202"
       id="path93"
       inkscape:connector-type="polyline"
       inkscape:connector-curvature="0"
       inkscape:connection-start="#path3-17"
       inkscape:connection-end="#path3" />
    <path
       style="fill:none;fill-rule:evenodd;stroke:#000000;stroke-width:1px;stroke-linecap:butt;stroke-linejoin:miter;stroke-opacity:1"
       d="M 181.62649,204.94343 75.798362,263.96391"
       id="path94"
       inkscape:connector-type="polyline"
       inkscape:connector-curvature="0"
       inkscape:connection-start="#path3-4"
       inkscape:connection-end="#path3" />
    <path
       style="fill:none;fill-rule:evenodd;stroke:#000000;stroke-width:1px;stroke-linecap:butt;stroke-linejoin:miter;stroke-opacity:1"
       d="m 197.81026,189.27244 32.69429,-54.42242"
       id="path95"
       inkscape:connector-type="polyline"
       inkscape:connector-curvature="0"
       inkscape:connection-end="#path3-0-9-0"
       inkscape:connection-start="#path3-4" />
    <path
       style="fill:none;fill-rule:evenodd;stroke:#000000;stroke-width:1px;stroke-linecap:butt;stroke-linejoin:miter;stroke-opacity:1"
       d="M 245.7831,117.799 301.21161,75.61804"
       id="path96"
       inkscape:connector-type="polyline"
       inkscape:connector-curvature="0"
       inkscape:connection-end="#path3-1"
       inkscape:connection-start="#path3-0-9-0" />
    <path
       style="fill:none;fill-rule:evenodd;stroke:#000000;stroke-width:1px;stroke-linecap:butt;stroke-linejoin:miter;stroke-opacity:1"
       d="m 321.02256,73.548792 69.93639,33.114798"
       id="path97"
       inkscape:connector-type="polyline"
       inkscape:connector-curvature="0"
       inkscape:connection-end="#path3-65"
       inkscape:connection-start="#path3-1" />
    <path
       style="fill:none;fill-rule:evenodd;stroke:#000000;stroke-width:1px;stroke-linecap:butt;stroke-linejoin:miter;stroke-opacity:1"
       d="m 394.86462,121.23882 -45.82494,66.2621"
       id="path98"
       inkscape:connector-type="polyline"
       inkscape:connector-curvature="0"
       inkscape:connection-start="#path3-65"
       inkscape:connection-end="#path3-6" />
    <path
       style="fill:none;fill-rule:evenodd;stroke:#000000;stroke-width:1px;stroke-linecap:butt;stroke-linejoin:miter;stroke-opacity:1"
       d="M 332.77999,190.52134 246.1372,131.42592"
       id="path99"
       inkscape:connector-type="polyline"
       inkscape:connector-curvature="0"
       inkscape:connection-start="#path3-6"
       inkscape:connection-end="#path3-0-9-0" />
    <path
       style="fill:none;fill-rule:evenodd;stroke:#000000;stroke-width:1px;stroke-linecap:butt;stroke-linejoin:miter;stroke-opacity:1"
       d="M 248.12485,123.92794 389.87703,112.58202"
       id="path100"
       inkscape:connector-type="polyline"
       inkscape:connector-curvature="0"
       inkscape:connection-end="#path3-65"
       inkscape:connection-start="#path3-0-9-0" />
    <path
       style="fill:none;fill-rule:evenodd;stroke:#000000;stroke-width:1px;stroke-linecap:butt;stroke-linejoin:miter;stroke-opacity:1"
       d="m 401.49448,111.65215 v 0"
       id="path101"
       inkscape:connector-type="polyline"
       inkscape:connector-curvature="0"
       inkscape:connection-end="#path3-65"
       inkscape:connection-start="#path3-65" />
    <path
       style="fill:none;fill-rule:evenodd;stroke:#000000;stroke-width:1px;stroke-linecap:butt;stroke-linejoin:miter;stroke-opacity:1"
       d="M 203.45947,199.09749 330.75614,197.2573"
       id="path102"
       inkscape:connector-type="polyline"
       inkscape:connector-curvature="0"
       inkscape:connection-end="#path3-6"
       inkscape:connection-start="#path3-4" />
    <path
       style="fill:none;fill-rule:evenodd;stroke:#000000;stroke-width:1px;stroke-linecap:butt;stroke-linejoin:miter;stroke-opacity:1"
       d="M 337.26895,207.55223 297.05107,289.4228"
       id="path103"
       inkscape:connector-type="polyline"
       inkscape:connector-curvature="0"
       inkscape:connection-start="#path3-6"
       inkscape:connection-end="#path3-0" />
    <path
       style="fill:none;fill-rule:evenodd;stroke:#000000;stroke-width:1px;stroke-linecap:butt;stroke-linejoin:miter;stroke-opacity:1"
       d="M 283.69073,291.62521 200.02738,207.52918"
       id="path104"
       inkscape:connector-type="polyline"
       inkscape:connector-curvature="0"
       inkscape:connection-start="#path3-0"
       inkscape:connection-end="#path3-4" />
    <path
       style="fill:none;fill-rule:evenodd;stroke:#000000;stroke-width:1px;stroke-linecap:butt;stroke-linejoin:miter;stroke-opacity:1"
       d="m 191.80666,199.26594 v 0"
       id="path105"
       inkscape:connector-type="polyline"
       inkscape:connector-curvature="0"
       inkscape:connection-end="#path3-4"
       inkscape:connection-start="#path3-4" />
    <path
       style="fill:none;fill-rule:evenodd;stroke:#000000;stroke-width:1px;stroke-linecap:butt;stroke-linejoin:miter;stroke-opacity:1"
       d="m 377.58891,253.39389 -75.43257,40.9336"
       id="path106"
       inkscape:connector-type="polyline"
       inkscape:connector-curvature="0"
       inkscape:connection-start="#path3-0-9-1"
       inkscape:connection-end="#path3-0" />
    <path
       style="fill:none;fill-rule:evenodd;stroke:#000000;stroke-width:1px;stroke-linecap:butt;stroke-linejoin:miter;stroke-opacity:1"
       d="m 350.18327,205.77372 29.87749,33.37684"
       id="path107"
       inkscape:connector-type="polyline"
       inkscape:connector-curvature="0"
       inkscape:connection-start="#path3-6"
       inkscape:connection-end="#path3-0-9-1" />
    <path
       style="fill:none;fill-rule:evenodd;stroke:#000000;stroke-width:1px;stroke-linecap:butt;stroke-linejoin:miter;stroke-opacity:1"
       d="m 472.1772,205.70236 -73.9144,36.92251"
       id="path108"
       inkscape:connector-type="polyline"
       inkscape:connector-curvature="0"
       inkscape:connection-start="#path3-0-9-4"
       inkscape:connection-end="#path3-0-9-1" />
    <path
       style="fill:none;fill-rule:evenodd;stroke:#000000;stroke-width:1px;stroke-linecap:butt;stroke-linejoin:miter;stroke-opacity:1"
       d="m 295.32238,311.03661 19.24138,62.87514"
       id="path109"
       inkscape:connector-type="polyline"
       inkscape:connector-curvature="0"
       inkscape:connection-end="#path3-0-5"
       inkscape:connection-start="#path3-0" />
    <path
       style="fill:none;fill-rule:evenodd;stroke:#000000;stroke-width:1px;stroke-linecap:butt;stroke-linejoin:miter;stroke-opacity:1"
       d="m 327.71896,378.66154 63.02448,-41.38649"
       id="path110"
       inkscape:connector-type="polyline"
       inkscape:connector-curvature="0"
       inkscape:connection-end="#path3-0-9"
       inkscape:connection-start="#path3-0-5" />
    <path
       style="fill:none;fill-rule:evenodd;stroke:#000000;stroke-width:1px;stroke-linecap:butt;stroke-linejoin:miter;stroke-opacity:1"
       d="m 398.73038,319.35293 -9.1404,-59.9937"
       id="path111"
       inkscape:connector-type="polyline"
       inkscape:connector-curvature="0"
       inkscape:connection-start="#path3-0-9"
       inkscape:connection-end="#path3-0-9-1" />
    <path
       style="fill:none;fill-rule:evenodd;stroke:#000000;stroke-width:1px;stroke-linecap:butt;stroke-linejoin:miter;stroke-opacity:1"
       d="m 303.12015,303.08693 86.15662,24.59092"
       id="path112"
       inkscape:connector-type="polyline"
       inkscape:connector-curvature="0"
       inkscape:connection-end="#path3-0-9"
       inkscape:connection-start="#path3-0" />
    <path
       style="fill:none;fill-rule:evenodd;stroke:#000000;stroke-width:1px;stroke-linecap:butt;stroke-linejoin:miter;stroke-opacity:1"
       d="m 410.37715,337.04568 84.85708,52.92053"
       id="path113"
       inkscape:connector-type="polyline"
       inkscape:connector-curvature="0"
       inkscape:connection-start="#path3-0-9"
       inkscape:connection-end="#path3-0-7" />
    <path
       style="fill:none;fill-rule:evenodd;stroke:#000000;stroke-width:1px;stroke-linecap:butt;stroke-linejoin:miter;stroke-opacity:1"
       d="M 511.82541,386.59531 550.91423,330.9529"
       id="path114"
       inkscape:connector-type="polyline"
       inkscape:connector-curvature="0"
       inkscape:connection-end="#path3-0-3"
       inkscape:connection-start="#path3-0-7" />
    <path
       style="fill:none;fill-rule:evenodd;stroke:#000000;stroke-width:1px;stroke-linecap:butt;stroke-linejoin:miter;stroke-opacity:1"
       d="m 545.98109,322.11586 -133.8616,8.06086"
       id="path115"
       inkscape:connector-type="polyline"
       inkscape:connector-curvature="0"
       inkscape:connection-start="#path3-0-3"
       inkscape:connection-end="#path3-0-9" />
    <path
       style="fill:none;fill-rule:evenodd;stroke:#000000;stroke-width:1px;stroke-linecap:butt;stroke-linejoin:miter;stroke-opacity:1"
       d="M 565.74121,329.77098 607.145,372.34054"
       id="path116"
       inkscape:connector-type="polyline"
       inkscape:connector-curvature="0"
       inkscape:connection-start="#path3-0-3"
       inkscape:connection-end="#path3-0-2" />
    <path
       style="fill:none;fill-rule:evenodd;stroke:#000000;stroke-width:1px;stroke-linecap:butt;stroke-linejoin:miter;stroke-opacity:1"
       d="m 567.18113,314.75579 52.90701,-36.82925"
       id="path118"
       inkscape:connector-type="polyline"
       inkscape:connector-curvature="0"
       inkscape:connection-end="#path3-0-8"
       inkscape:connection-start="#path3-0-3" />
    <path
       style="fill:none;fill-rule:evenodd;stroke:#000000;stroke-width:1px;stroke-linecap:butt;stroke-linejoin:miter;stroke-opacity:1"
       d="m 628.13486,282.82526 -11.34483,86.31176"
       id="path119"
       inkscape:connector-type="polyline"
       inkscape:connector-curvature="0"
       inkscape:connection-start="#path3-0-8"
       inkscape:connection-end="#path3-0-2" />
    <path
       style="fill:none;fill-rule:evenodd;stroke:#000000;stroke-width:1px;stroke-linecap:butt;stroke-linejoin:miter;stroke-opacity:1"
       d="M 627.57147,259.79749 615.0621,190.89863"
       id="path120"
       inkscape:connector-type="polyline"
       inkscape:connector-curvature="0"
       inkscape:connection-start="#path3-0-8"
       inkscape:connection-end="#path3-9" />
    <path
       style="fill:none;fill-rule:evenodd;stroke:#000000;stroke-width:1px;stroke-linecap:butt;stroke-linejoin:miter;stroke-opacity:1"
       d="M 561.85018,310.55232 608.7441,190.28967"
       id="path121"
       inkscape:connector-type="polyline"
       inkscape:connector-curvature="0"
       inkscape:connection-end="#path3-9"
       inkscape:connection-start="#path3-0-3" />
    <path
       style="fill:none;fill-rule:evenodd;stroke:#000000;stroke-width:1px;stroke-linecap:butt;stroke-linejoin:miter;stroke-opacity:1"
       d="M 601.47292,181.28701 494.11189,198.63403"
       id="path122"
       inkscape:connector-type="polyline"
       inkscape:connector-curvature="0"
       inkscape:connection-end="#path3-0-9-4"
       inkscape:connection-start="#path3-9" />
    <path
       style="fill:none;fill-rule:evenodd;stroke:#000000;stroke-width:1px;stroke-linecap:butt;stroke-linejoin:miter;stroke-opacity:1"
       d="m 485.71242,189.25549 20.30194,-73.42658"
       id="path123"
       inkscape:connector-type="polyline"
       inkscape:connector-curvature="0"
       inkscape:connection-start="#path3-0-9-4"
       inkscape:connection-end="#path3-95" />
    <path
       style="fill:none;fill-rule:evenodd;stroke:#000000;stroke-width:1px;stroke-linecap:butt;stroke-linejoin:miter;stroke-opacity:1"
       d="M 470.95463,200.21032 354.05959,197.37176"
       id="path124"
       inkscape:connector-type="polyline"
       inkscape:connector-curvature="0"
       inkscape:connection-start="#path3-0-9-4"
       inkscape:connection-end="#path3-6" />
    <path
       style="fill:none;fill-rule:evenodd;stroke:#000000;stroke-width:1px;stroke-linecap:butt;stroke-linejoin:miter;stroke-opacity:1"
       d="m 518.57826,111.40643 84.9451,61.20775"
       id="path125"
       inkscape:connector-type="polyline"
       inkscape:connector-curvature="0"
       inkscape:connection-start="#path3-95"
       inkscape:connection-end="#path3-9" />
    <path
       style="fill:none;fill-rule:evenodd;stroke:#000000;stroke-width:1px;stroke-linecap:butt;stroke-linejoin:miter;stroke-opacity:1"
       d="m 613.76788,167.79794 7.1895,-106.049842"
       id="path126"
       inkscape:connector-type="polyline"
       inkscape:connector-curvature="0"
       inkscape:connection-end="#path1-3"
       inkscape:connection-start="#path3-9" />
    <path
       style="fill:none;fill-rule:evenodd;stroke:#000000;stroke-width:1px;stroke-linecap:butt;stroke-linejoin:miter;stroke-opacity:1"
       d="m 516.66707,394.51622 87.06115,-12.20316"
       id="path128"
       inkscape:connector-type="polyline"
       inkscape:connector-curvature="0"
       inkscape:connection-end="#path3-0-2"
       inkscape:connection-start="#path3-0-7" />
    <path
       style="fill:none;fill-rule:evenodd;stroke:#000000;stroke-width:1px;stroke-linecap:butt;stroke-linejoin:miter;stroke-opacity:1"
       d="M 611.25138,55.194128 519.61569,99.516205"
       id="path129"
       inkscape:connector-type="polyline"
       inkscape:connector-curvature="0"
       inkscape:connection-start="#path1-3"
       inkscape:connection-end="#path3-95" />
    <path
       style="fill:none;fill-rule:evenodd;stroke:#000000;stroke-width:1px;stroke-linecap:butt;stroke-linejoin:miter;stroke-opacity:1"
       d="m 329.60939,385.74832 163.88098,9.69739"
       id="path131"
       inkscape:connector-type="polyline"
       inkscape:connector-curvature="0"
       inkscape:connection-start="#path3-0-5"
       inkscape:connection-end="#path3-0-7" />
    <path
       style="fill:none;fill-rule:evenodd;stroke:#000000;stroke-width:1px;stroke-linecap:butt;stroke-linejoin:miter;stroke-opacity:1"
       d="m 313.29679,79.875306 26.302,105.899054"
       id="path132"
       inkscape:connector-type="polyline"
       inkscape:connector-curvature="0"
       inkscape:connection-start="#path3-1"
       inkscape:connection-end="#path3-6" />
    <path
       style="fill:none;fill-rule:evenodd;stroke:#000000;stroke-width:1px;stroke-linecap:butt;stroke-linejoin:miter;stroke-opacity:1"
       d="M 323.26475,374.66981 382.54536,258.22315"
       id="path133"
       inkscape:connector-type="polyline"
       inkscape:connector-curvature="0"
       inkscape:connection-start="#path3-0-5"
       inkscape:connection-end="#path3-0-9-1" />
    <path
       style="fill:none;fill-rule:evenodd;stroke:#000000;stroke-width:1px;stroke-linecap:butt;stroke-linejoin:miter;stroke-opacity:1"
       d="M 388.99757,236.23548 400.33104,123.25061"
       id="path135"
       inkscape:connector-type="polyline"
       inkscape:connector-curvature="0"
       inkscape:connection-start="#path3-0-9-1"
       inkscape:connection-end="#path3-65" />
  </g>
</svg>
