<?xml version="1.0" encoding="UTF-8" standalone="no"?>
<!-- Created with Inkscape (http://www.inkscape.org/) -->

<svg
   version="1.1"
   id="svg1"
   width="673.33331"
   height="429.33334"
   viewBox="0 0 673.33331 429.33334"
   sodipodi:docname="PRMpathFinding3.svg"
   inkscape:version="1.3.2 (091e20e, 2023-11-25)"
   xmlns:inkscape="http://www.inkscape.org/namespaces/inkscape"
   xmlns:sodipodi="http://sodipodi.sourceforge.net/DTD/sodipodi-0.dtd"
   xmlns="http://www.w3.org/2000/svg"
   xmlns:svg="http://www.w3.org/2000/svg">
  <defs
     id="defs1" />
  <sodipodi:namedview
     id="namedview1"
     pagecolor="#505050"
     bordercolor="#eeeeee"
     borderopacity="1"
     inkscape:showpageshadow="0"
     inkscape:pageopacity="0"
     inkscape:pagecheckerboard="0"
     inkscape:deskcolor="#505050"
     inkscape:zoom="1.8519802"
     inkscape:cx="336.66666"
     inkscape:cy="214.63512"
     inkscape:window-width="1920"
     inkscape:window-height="1043"
     inkscape:window-x="0"
     inkscape:window-y="0"
     inkscape:window-maximized="1"
     inkscape:current-layer="g1">
    <inkscape:page
       x="0"
       y="0"
       inkscape:label="1"
       id="page1"
       width="673.33331"
       height="429.33334"
       margin="0"
       bleed="0" />
  </sodipodi:namedview>
  <g
     id="g1"
     inkscape:groupmode="layer"
     inkscape:label="1">
    <path
       id="path1"
       d="m 41.047,285.617 c 0,4.828 -3.914,8.742 -8.742,8.742 -4.828,0 -8.739,-3.914 -8.739,-8.742 0,-4.828 3.911,-8.742 8.739,-8.742 4.828,0 8.742,3.914 8.742,8.742 z"
       style="fill:#008000;fill-opacity:1;fill-rule:nonzero;stroke:none"
       transform="scale(1.3333333)" />
    <path
       id="path2"
       d="m 57.953,202.23 c 0,4.829 -3.91,8.743 -8.738,8.743 -4.828,0 -8.742,-3.914 -8.742,-8.743 0,-4.828 3.914,-8.742 8.742,-8.742 4.828,0 8.738,3.914 8.738,8.742 z"
       style="fill:#0000ff;fill-opacity:1;fill-rule:nonzero;stroke:none"
       transform="scale(1.3333333)" />
    <path
       id="path3"
       d="m 152.594,149.449 c 0,4.828 -3.91,8.742 -8.739,8.742 -4.828,0 -8.742,-3.914 -8.742,-8.742 0,-4.828 3.914,-8.742 8.742,-8.742 4.829,0 8.739,3.914 8.739,8.742 z"
       style="fill:#ff0000;fill-opacity:1;fill-rule:nonzero;stroke:none"
       transform="scale(1.3333333)" />
    <path
       id="path4"
       d="m 227.672,224.914 c 0,4.828 -3.91,8.742 -8.738,8.742 -4.829,0 -8.743,-3.914 -8.743,-8.742 0,-4.828 3.914,-8.742 8.743,-8.742 4.828,0 8.738,3.914 8.738,8.742 z"
       style="fill:#0000ff;fill-opacity:1;fill-rule:nonzero;stroke:none"
       transform="scale(1.3333333)" />
    <path
       id="path5"
       d="m 309.105,248.156 c 0,4.828 -3.91,8.742 -8.738,8.742 -4.828,0 -8.742,-3.914 -8.742,-8.742 0,-4.828 3.914,-8.742 8.742,-8.742 4.828,0 8.738,3.914 8.738,8.742 z"
       style="fill:#0000ff;fill-opacity:1;fill-rule:nonzero;stroke:none"
       transform="scale(1.3333333)" />
    <path
       id="path6"
       d="m 299.617,185.875 c 0,4.828 -3.914,8.742 -8.738,8.742 -4.828,0 -8.742,-3.914 -8.742,-8.742 0,-4.828 3.914,-8.742 8.742,-8.742 4.824,0 8.738,3.914 8.738,8.742 z"
       style="fill:#0000ff;fill-opacity:1;fill-rule:nonzero;stroke:none"
       transform="scale(1.3333333)" />
    <path
       id="path7"
       d="m 370.695,150.371 c 0,4.828 -3.91,8.742 -8.738,8.742 -4.828,0 -8.742,-3.914 -8.742,-8.742 0,-4.828 3.914,-8.742 8.742,-8.742 4.828,0 8.738,3.914 8.738,8.742 z"
       style="fill:#ff0000;fill-opacity:1;fill-rule:nonzero;stroke:none"
       transform="scale(1.3333333)" />
    <path
       id="path8"
       d="m 186.121,93.645 c 0,4.828 -3.91,8.742 -8.738,8.742 -4.828,0 -8.742,-3.914 -8.742,-8.742 0,-4.829 3.914,-8.743 8.742,-8.743 4.828,0 8.738,3.914 8.738,8.743 z"
       style="fill:#0000ff;fill-opacity:1;fill-rule:nonzero;stroke:none"
       transform="scale(1.3333333)" />
    <path
       id="path9"
       d="m 265.547,147.816 c 0,4.829 -3.91,8.743 -8.738,8.743 -4.829,0 -8.743,-3.914 -8.743,-8.743 0,-4.828 3.914,-8.742 8.743,-8.742 4.828,0 8.738,3.914 8.738,8.742 z"
       style="fill:#ff0000;fill-opacity:1;fill-rule:nonzero;stroke:none"
       transform="scale(1.3333333)" />
    <path
       id="path10"
       d="m 241.605,51.422 c 0,4.824 -3.91,8.738 -8.738,8.738 -4.828,0 -8.742,-3.914 -8.742,-8.738 0,-4.828 3.914,-8.742 8.742,-8.742 4.828,0 8.738,3.914 8.738,8.742 z"
       style="fill:#0000ff;fill-opacity:1;fill-rule:nonzero;stroke:none"
       transform="scale(1.3333333)" />
    <path
       id="path11"
       d="m 309.863,83.738 c 0,4.828 -3.914,8.742 -8.742,8.742 -4.828,0 -8.742,-3.914 -8.742,-8.742 0,-4.828 3.914,-8.742 8.742,-8.742 4.828,0 8.742,3.914 8.742,8.742 z"
       style="fill:#0000ff;fill-opacity:1;fill-rule:nonzero;stroke:none"
       transform="scale(1.3333333)" />
    <path
       id="path12"
       d="m 468.477,134.57 c 0,4.828 -3.915,8.742 -8.743,8.742 -4.828,0 -8.742,-3.914 -8.742,-8.742 0,-4.828 3.914,-8.742 8.742,-8.742 4.828,0 8.743,3.914 8.743,8.742 z"
       style="fill:#0000ff;fill-opacity:1;fill-rule:nonzero;stroke:none"
       transform="scale(1.3333333)" />
    <path
       id="path13"
       d="m 390.582,78.445 c 0,4.828 -3.91,8.743 -8.738,8.743 -4.828,0 -8.742,-3.915 -8.742,-8.743 0,-4.828 3.914,-8.742 8.742,-8.742 4.828,0 8.738,3.914 8.738,8.742 z"
       style="fill:#ff0000;fill-opacity:1;fill-rule:nonzero;stroke:none"
       transform="scale(1.3333333)" />
    <path
       id="path14"
       d="m 33.859,134.613 c 0,4.828 -3.91,8.742 -8.738,8.742 -4.828,0 -8.742,-3.914 -8.742,-8.742 0,-4.828 3.914,-8.742 8.742,-8.742 4.828,0 8.738,3.914 8.738,8.742 z"
       style="fill:#0000ff;fill-opacity:1;fill-rule:nonzero;stroke:none"
       transform="scale(1.3333333)" />
    <path
       id="path15"
       d="m 116.637,245.914 c 0,4.828 -3.91,8.742 -8.739,8.742 -4.828,0 -8.742,-3.914 -8.742,-8.742 0,-4.828 3.914,-8.742 8.742,-8.742 4.829,0 8.739,3.914 8.739,8.742 z"
       style="fill:#ff0000;fill-opacity:1;fill-rule:nonzero;stroke:none"
       transform="scale(1.3333333)" />
    <path
       id="path16"
       d="m 17.777,297.012 c 0,-0.094 -0.078,-0.188 -0.187,-0.188 -0.156,0 -0.969,0.75 -1.36,1.469 -0.375,-0.922 -1.015,-1.484 -1.906,-1.484 -2.328,0 -4.844,3.015 -4.844,6.078 0,2.047 1.188,3.234 2.594,3.234 1.094,0 2,-0.828 2.438,-1.297 l 0.015,0.016 -0.781,3.109 -0.187,0.735 c -0.188,0.625 -0.485,0.625 -1.469,0.64 -0.219,0 -0.422,0 -0.422,0.391 0,0.156 0.125,0.203 0.266,0.203 0.281,0 0.656,-0.031 0.953,-0.031 h 2.109 c 0.297,0 0.656,0.031 0.969,0.031 0.125,0 0.359,0 0.359,-0.391 0,-0.203 -0.156,-0.203 -0.469,-0.203 -0.968,0 -1.031,-0.14 -1.031,-0.312 0,-0.094 0.016,-0.125 0.078,-0.391 z m -2.906,6.453 c -0.109,0.344 -0.109,0.39 -0.406,0.781 -0.453,0.578 -1.36,1.469 -2.328,1.469 -0.844,0 -1.328,-0.766 -1.328,-1.985 0,-1.14 0.64,-3.453 1.046,-4.312 0.704,-1.453 1.672,-2.203 2.469,-2.203 1.36,0 1.641,1.703 1.641,1.859 0,0.031 -0.063,0.297 -0.094,0.344 z"
       style="fill:#000000;fill-opacity:1;fill-rule:nonzero;stroke:none"
       transform="scale(1.3333333)" />
    <path
       id="path17"
       d="m 22.34,302.953 c 0,-0.265 0,-0.328 -0.141,-0.328 -0.109,0 -0.39,0.313 -0.484,0.437 -0.453,-0.359 -0.891,-0.437 -1.36,-0.437 -1.734,0 -2.25,0.937 -2.25,1.734 0,0.157 0,0.657 0.547,1.157 0.469,0.406 0.953,0.5 1.61,0.625 0.781,0.156 0.968,0.203 1.328,0.5 0.265,0.203 0.453,0.531 0.453,0.921 0,0.626 -0.359,1.313 -1.625,1.313 -0.938,0 -1.641,-0.547 -1.953,-1.984 -0.047,-0.25 -0.047,-0.266 -0.063,-0.282 -0.031,-0.062 -0.093,-0.062 -0.14,-0.062 -0.157,0 -0.157,0.078 -0.157,0.328 v 1.953 c 0,0.266 0,0.328 0.141,0.328 0.078,0 0.094,-0.015 0.344,-0.312 0.062,-0.094 0.062,-0.125 0.281,-0.36 0.547,0.672 1.313,0.672 1.563,0.672 1.5,0 2.25,-0.828 2.25,-1.968 0,-0.766 -0.469,-1.235 -0.594,-1.36 -0.516,-0.437 -0.906,-0.531 -1.86,-0.703 -0.421,-0.078 -1.468,-0.281 -1.468,-1.141 0,-0.453 0.297,-1.109 1.593,-1.109 1.563,0 1.641,1.328 1.672,1.781 0.016,0.11 0.11,0.11 0.157,0.11 0.156,0 0.156,-0.063 0.156,-0.328 z"
       style="fill:#000000;fill-opacity:1;fill-rule:nonzero;stroke:none"
       transform="scale(1.3333333)" />
    <path
       id="path18"
       d="m 25.586,303.25 h 2.031 v -0.422 h -2.031 v -2.64 h -0.313 c -0.015,1.359 -0.531,2.734 -1.828,2.781 v 0.281 h 1.219 v 3.984 c 0,1.594 1.047,1.922 1.813,1.922 0.906,0 1.375,-0.89 1.375,-1.922 v -0.812 h -0.313 v 0.781 c 0,1.031 -0.422,1.641 -0.969,1.641 -0.984,0 -0.984,-1.328 -0.984,-1.578 z"
       style="fill:#000000;fill-opacity:1;fill-rule:nonzero;stroke:none"
       transform="scale(1.3333333)" />
    <path
       id="path19"
       d="m 34.172,305.188 c 0,-0.782 0,-1.344 -0.625,-1.907 -0.5,-0.469 -1.141,-0.656 -1.781,-0.656 -1.172,0 -2.078,0.766 -2.078,1.703 0,0.406 0.265,0.61 0.609,0.61 0.344,0 0.578,-0.235 0.578,-0.579 0,-0.593 -0.516,-0.593 -0.734,-0.593 0.343,-0.61 1.031,-0.86 1.593,-0.86 0.672,0 1.516,0.547 1.516,1.828 v 0.578 c -2.891,0.047 -3.984,1.25 -3.984,2.36 0,1.125 1.328,1.484 2.203,1.484 0.937,0 1.593,-0.578 1.859,-1.265 0.063,0.687 0.5,1.203 1.125,1.203 0.297,0 1.125,-0.203 1.125,-1.36 v -0.796 h -0.312 v 0.796 c 0,0.828 -0.344,0.938 -0.547,0.938 -0.547,0 -0.547,-0.766 -0.547,-0.969 z M 33.25,307 c 0,1.406 -1.047,1.875 -1.672,1.875 -0.703,0 -1.281,-0.516 -1.281,-1.203 0,-1.891 2.437,-2.063 2.953,-2.094 z"
       style="fill:#000000;fill-opacity:1;fill-rule:nonzero;stroke:none"
       transform="scale(1.3333333)" />
    <path
       id="path20"
       d="m 38.055,305.672 c 0,-1.391 0.578,-2.688 1.687,-2.688 0.11,0 0.141,0 0.203,0 -0.125,0.063 -0.343,0.157 -0.343,0.532 0,0.422 0.328,0.578 0.546,0.578 0.297,0 0.579,-0.188 0.579,-0.578 0,-0.422 -0.391,-0.828 -1,-0.828 -1.219,0 -1.641,1.328 -1.719,1.593 h -0.016 v -1.593 l -1.922,0.156 v 0.422 c 0.969,0 1.078,0.093 1.078,0.796 v 3.891 c 0,0.641 -0.156,0.641 -1.078,0.641 v 0.422 c 0.391,-0.032 1.188,-0.032 1.61,-0.032 0.39,0 1.406,0 1.75,0.032 v -0.422 h -0.297 c -1.047,0 -1.078,-0.156 -1.078,-0.672 z"
       style="fill:#000000;fill-opacity:1;fill-rule:nonzero;stroke:none"
       transform="scale(1.3333333)" />
    <path
       id="path21"
       d="m 43.535,303.25 h 2.031 v -0.422 h -2.031 v -2.64 h -0.312 c -0.016,1.359 -0.532,2.734 -1.828,2.781 v 0.281 h 1.218 v 3.984 c 0,1.594 1.047,1.922 1.813,1.922 0.906,0 1.375,-0.89 1.375,-1.922 v -0.812 h -0.313 v 0.781 c 0,1.031 -0.422,1.641 -0.968,1.641 -0.985,0 -0.985,-1.328 -0.985,-1.578 z"
       style="fill:#000000;fill-opacity:1;fill-rule:nonzero;stroke:none"
       transform="scale(1.3333333)" />
    <path
       id="path22"
       d="M 2.609,3.145 H 500.671 V 318.071 H 2.609 Z"
       style="fill:none;stroke:#000000;stroke-width:0.739503;stroke-linecap:butt;stroke-linejoin:miter;stroke-miterlimit:4;stroke-dasharray:none;stroke-opacity:1"
       transform="scale(1.3333333)" />
    <path
       id="path23"
       d="m 475.051,37.59 c 0,4.828 -3.914,8.742 -8.742,8.742 -4.829,0 -8.739,-3.914 -8.739,-8.742 0,-4.828 3.91,-8.742 8.739,-8.742 4.828,0 8.742,3.914 8.742,8.742 z"
       style="fill:#ff0000;fill-opacity:1;fill-rule:nonzero;stroke:none"
       transform="scale(1.3333333)" />
    <path
       id="path24"
       d="m 468.273,9.191 c 0,-0.093 -0.078,-0.187 -0.187,-0.187 -0.156,0 -0.969,0.75 -1.359,1.469 -0.375,-0.922 -1.016,-1.485 -1.907,-1.485 -2.328,0 -4.843,3.016 -4.843,6.078 0,2.047 1.187,3.235 2.593,3.235 1.094,0 2,-0.828 2.438,-1.297 l 0.015,0.016 -0.781,3.109 -0.187,0.734 c -0.188,0.625 -0.485,0.625 -1.469,0.641 -0.219,0 -0.422,0 -0.422,0.391 0,0.156 0.125,0.203 0.266,0.203 0.281,0 0.656,-0.032 0.953,-0.032 h 2.109 c 0.297,0 0.656,0.032 0.969,0.032 0.125,0 0.359,0 0.359,-0.391 0,-0.203 -0.156,-0.203 -0.468,-0.203 -0.969,0 -1.032,-0.141 -1.032,-0.313 0,-0.093 0.016,-0.125 0.078,-0.39 z m -2.906,6.454 c -0.109,0.343 -0.109,0.39 -0.406,0.781 -0.453,0.578 -1.359,1.469 -2.328,1.469 -0.844,0 -1.328,-0.766 -1.328,-1.985 0,-1.14 0.64,-3.453 1.047,-4.312 0.703,-1.453 1.671,-2.203 2.468,-2.203 1.36,0 1.641,1.703 1.641,1.859 0,0.031 -0.063,0.297 -0.094,0.344 z"
       style="fill:#000000;fill-opacity:1;fill-rule:nonzero;stroke:none"
       transform="scale(1.3333333)" />
    <path
       id="path25"
       d="m 469.836,18.605 c 0.672,0.438 1.25,0.438 1.406,0.438 1.297,0 2.25,-0.969 2.25,-2.078 0,-0.391 -0.109,-0.922 -0.562,-1.391 0.547,-0.578 1.234,-0.578 1.297,-0.578 0.062,0 0.125,0 0.187,0.031 -0.141,0.063 -0.219,0.203 -0.219,0.36 0,0.203 0.141,0.375 0.375,0.375 0.125,0 0.375,-0.078 0.375,-0.391 0,-0.25 -0.203,-0.656 -0.703,-0.656 -0.75,0 -1.297,0.453 -1.5,0.672 -0.437,-0.328 -0.937,-0.516 -1.484,-0.516 -1.281,0 -2.25,0.984 -2.25,2.078 0,0.828 0.5,1.36 0.64,1.485 -0.171,0.218 -0.421,0.625 -0.421,1.187 0,0.828 0.5,1.188 0.609,1.266 -0.656,0.187 -1.313,0.703 -1.313,1.453 0,0.984 1.344,1.797 3.11,1.797 1.703,0 3.125,-0.75 3.125,-1.828 0,-0.36 -0.094,-1.204 -0.953,-1.657 -0.735,-0.375 -1.453,-0.375 -2.688,-0.375 -0.875,0 -0.969,0 -1.234,-0.265 -0.141,-0.141 -0.266,-0.422 -0.266,-0.719 0,-0.25 0.078,-0.484 0.219,-0.688 z m 1.422,0.141 c -1.266,0 -1.266,-1.453 -1.266,-1.781 0,-0.25 0,-0.844 0.25,-1.235 0.266,-0.406 0.703,-0.562 1,-0.562 1.266,0 1.266,1.453 1.266,1.781 0,0.266 0,0.844 -0.25,1.235 -0.266,0.421 -0.703,0.562 -1,0.562 z m 0.39,5.094 c -1.375,0 -2.421,-0.703 -2.421,-1.516 0,-0.125 0.031,-0.687 0.562,-1.047 0.328,-0.203 0.453,-0.203 1.453,-0.203 1.188,0 2.813,0 2.813,1.25 0,0.844 -1.094,1.516 -2.407,1.516 z"
       style="fill:#000000;fill-opacity:1;fill-rule:nonzero;stroke:none"
       transform="scale(1.3333333)" />
    <path
       id="path26"
       d="m 481.734,18.137 c 0,-1.86 -1.406,-3.328 -3.062,-3.328 -1.719,0 -3.078,1.515 -3.078,3.328 0,1.828 1.422,3.203 3.062,3.203 1.688,0 3.078,-1.406 3.078,-3.203 z m -3.062,2.89 c -0.531,0 -1.172,-0.234 -1.594,-0.937 -0.39,-0.641 -0.406,-1.485 -0.406,-2.094 0,-0.547 0,-1.422 0.453,-2.062 0.391,-0.61 1.031,-0.844 1.531,-0.844 0.563,0 1.156,0.25 1.547,0.812 0.453,0.657 0.453,1.563 0.453,2.094 0,0.5 0,1.391 -0.375,2.063 -0.406,0.703 -1.062,0.968 -1.609,0.968 z"
       style="fill:#000000;fill-opacity:1;fill-rule:nonzero;stroke:none"
       transform="scale(1.3333333)" />
    <path
       id="path27"
       d="m 487.715,17.371 c 0,-0.781 0,-1.344 -0.625,-1.906 -0.5,-0.469 -1.141,-0.656 -1.781,-0.656 -1.172,0 -2.079,0.765 -2.079,1.703 0,0.406 0.266,0.609 0.61,0.609 0.344,0 0.578,-0.234 0.578,-0.578 0,-0.594 -0.516,-0.594 -0.734,-0.594 0.343,-0.609 1.031,-0.859 1.593,-0.859 0.672,0 1.516,0.547 1.516,1.828 v 0.578 c -2.891,0.047 -3.984,1.25 -3.984,2.359 0,1.125 1.328,1.485 2.203,1.485 0.937,0 1.593,-0.578 1.859,-1.266 0.063,0.688 0.5,1.203 1.125,1.203 0.297,0 1.125,-0.203 1.125,-1.359 v -0.797 h -0.312 v 0.797 c 0,0.828 -0.344,0.937 -0.547,0.937 -0.547,0 -0.547,-0.765 -0.547,-0.968 z m -0.922,1.813 c 0,1.406 -1.047,1.875 -1.672,1.875 -0.703,0 -1.281,-0.516 -1.281,-1.204 0,-1.89 2.437,-2.062 2.953,-2.093 z"
       style="fill:#000000;fill-opacity:1;fill-rule:nonzero;stroke:none"
       transform="scale(1.3333333)" />
    <path
       id="path28"
       d="m 491.676,11.246 -2,0.156 v 0.422 c 0.984,0 1.094,0.094 1.094,0.797 v 7.516 c 0,0.64 -0.157,0.64 -1.094,0.64 v 0.422 c 0.406,-0.031 1.109,-0.031 1.547,-0.031 0.422,0 1.14,0 1.547,0.031 v -0.422 c -0.922,0 -1.094,0 -1.094,-0.64 z"
       style="fill:#000000;fill-opacity:1;fill-rule:nonzero;stroke:none"
       transform="scale(1.3333333)" />
    <path
       id="path29"
       d="m 142.496,210.84 h 8.398 v 106.938 h -8.398 z"
       style="fill:#000000;fill-opacity:1;fill-rule:evenodd;stroke:#000000;stroke-width:0.559734;stroke-linecap:butt;stroke-linejoin:miter;stroke-miterlimit:4;stroke-dasharray:none;stroke-opacity:1"
       transform="scale(1.3333333)" />
    <path
       id="path30"
       d="m 319.352,3.395 h 8.34 v 132.039 h -8.34 z"
       style="fill:#000000;fill-opacity:1;fill-rule:evenodd;stroke:#000000;stroke-width:0.619737;stroke-linecap:butt;stroke-linejoin:miter;stroke-miterlimit:4;stroke-dasharray:none;stroke-opacity:1"
       transform="scale(1.3333333)" />
    <path
       id="path31"
       d="M 13.469,68.184 60.289,110.16 129.719,96.676 180.391,26.297 66.512,10.914 Z"
       style="fill:#000000;fill-opacity:1;fill-rule:evenodd;stroke:#000000;stroke-width:0.75;stroke-linecap:butt;stroke-linejoin:miter;stroke-miterlimit:4;stroke-dasharray:none;stroke-opacity:1"
       transform="scale(1.3333333)" />
    <path
       id="path32"
       d="m 315.512,210.68 84.027,-50.473 22.027,41.398 -37.726,23.891 z"
       style="fill:#000000;fill-opacity:1;fill-rule:evenodd;stroke:#000000;stroke-width:0.443522;stroke-linecap:butt;stroke-linejoin:miter;stroke-miterlimit:4;stroke-dasharray:none;stroke-opacity:1"
       transform="scale(1.3333333)" />
    <path
       id="path33"
       d="m 247.223,288.797 c 0,4.824 -3.911,8.738 -8.739,8.738 -4.828,0 -8.742,-3.914 -8.742,-8.738 0,-4.828 3.914,-8.742 8.742,-8.742 4.828,0 8.739,3.914 8.739,8.742 z"
       style="fill:#0000ff;fill-opacity:1;fill-rule:nonzero;stroke:none"
       transform="scale(1.3333333)" />
    <path
       id="path34"
       d="m 387.582,297.102 c 0,4.828 -3.91,8.742 -8.738,8.742 -4.828,0 -8.742,-3.914 -8.742,-8.742 0,-4.829 3.914,-8.743 8.742,-8.743 4.828,0 8.738,3.914 8.738,8.743 z"
       style="fill:#0000ff;fill-opacity:1;fill-rule:nonzero;stroke:none"
       transform="scale(1.3333333)" />
    <path
       id="path35"
       d="m 426.953,241.062 c 0,4.829 -3.914,8.743 -8.742,8.743 -4.828,0 -8.742,-3.914 -8.742,-8.743 0,-4.828 3.914,-8.742 8.742,-8.742 4.828,0 8.742,3.914 8.742,8.742 z"
       style="fill:#0000ff;fill-opacity:1;fill-rule:nonzero;stroke:none"
       transform="scale(1.3333333)" />
    <path
       id="path36"
       d="m 470.195,285.52 c 0,4.828 -3.914,8.742 -8.742,8.742 -4.828,0 -8.742,-3.914 -8.742,-8.742 0,-4.825 3.914,-8.739 8.742,-8.739 4.828,0 8.742,3.914 8.742,8.739 z"
       style="fill:#0000ff;fill-opacity:1;fill-rule:nonzero;stroke:none"
       transform="scale(1.3333333)" />
    <path
       id="path37"
       d="m 480.98,203.449 c 0,4.828 -3.91,8.742 -8.738,8.742 -4.828,0 -8.742,-3.914 -8.742,-8.742 0,-4.828 3.914,-8.742 8.742,-8.742 4.828,0 8.738,3.914 8.738,8.742 z"
       style="fill:#0000ff;fill-opacity:1;fill-rule:nonzero;stroke:none"
       transform="scale(1.3333333)" />
    <path
       id="path38"
       d="m 34.043,277.051 13.434,-66.25"
       style="fill:none;stroke:#000000;stroke-width:0.75;stroke-linecap:butt;stroke-linejoin:miter;stroke-miterlimit:4;stroke-dasharray:none;stroke-opacity:1"
       transform="scale(1.3333333)" />
    <path
       id="path39"
       d="m 56.227,207.453 44.66,33.242"
       style="fill:none;stroke:#000000;stroke-width:0.75;stroke-linecap:butt;stroke-linejoin:miter;stroke-miterlimit:4;stroke-dasharray:none;stroke-opacity:1"
       transform="scale(1.3333333)" />
    <path
       id="path40"
       d="M 100.156,249.98 40.047,281.555"
       style="fill:none;stroke:#ff0000;stroke-width:2.25;stroke-linecap:butt;stroke-linejoin:miter;stroke-miterlimit:4;stroke-dasharray:none;stroke-opacity:1"
       transform="scale(1.3333333)" />
    <path
       id="path41"
       d="m 110.949,237.723 29.852,-80.078"
       style="fill:none;stroke:#ff0000;stroke-width:2.25;stroke-linecap:butt;stroke-linejoin:miter;stroke-miterlimit:4;stroke-dasharray:none;stroke-opacity:1"
       transform="scale(1.3333333)" />
    <path
       id="path42"
       d="M 135.18,148.367 33.793,135.695"
       style="fill:none;stroke:#000000;stroke-width:0.75;stroke-linecap:butt;stroke-linejoin:miter;stroke-miterlimit:4;stroke-dasharray:none;stroke-opacity:1"
       transform="scale(1.3333333)" />
    <path
       id="path43"
       d="m 28.055,142.852 18.222,51.144"
       style="fill:none;stroke:#000000;stroke-width:0.75;stroke-linecap:butt;stroke-linejoin:miter;stroke-miterlimit:4;stroke-dasharray:none;stroke-opacity:1"
       transform="scale(1.3333333)" />
    <path
       id="path44"
       d="M 136.219,153.707 56.848,197.973"
       style="fill:none;stroke:#000000;stroke-width:0.75;stroke-linecap:butt;stroke-linejoin:miter;stroke-miterlimit:4;stroke-dasharray:none;stroke-opacity:1"
       transform="scale(1.3333333)" />
    <path
       id="path45"
       d="m 148.359,141.953 24.52,-40.816"
       style="fill:none;stroke:#000000;stroke-width:0.75;stroke-linecap:butt;stroke-linejoin:miter;stroke-miterlimit:4;stroke-dasharray:none;stroke-opacity:1"
       transform="scale(1.3333333)" />
    <path
       id="path46"
       d="M 184.336,88.348 225.91,56.715"
       style="fill:none;stroke:#000000;stroke-width:0.75;stroke-linecap:butt;stroke-linejoin:miter;stroke-miterlimit:4;stroke-dasharray:none;stroke-opacity:1"
       transform="scale(1.3333333)" />
    <path
       id="path47"
       d="m 240.766,55.16 52.453,24.836"
       style="fill:none;stroke:#000000;stroke-width:0.75;stroke-linecap:butt;stroke-linejoin:miter;stroke-miterlimit:4;stroke-dasharray:none;stroke-opacity:1"
       transform="scale(1.3333333)" />
    <path
       id="path48"
       d="m 296.148,90.93 -34.367,49.695"
       style="fill:none;stroke:#000000;stroke-width:0.75;stroke-linecap:butt;stroke-linejoin:miter;stroke-miterlimit:4;stroke-dasharray:none;stroke-opacity:1"
       transform="scale(1.3333333)" />
    <path
       id="path49"
       d="M 249.586,142.891 184.602,98.57"
       style="fill:none;stroke:#000000;stroke-width:0.75;stroke-linecap:butt;stroke-linejoin:miter;stroke-miterlimit:4;stroke-dasharray:none;stroke-opacity:1"
       transform="scale(1.3333333)" />
    <path
       id="path50"
       d="M 186.094,92.945 292.406,84.438"
       style="fill:none;stroke:#000000;stroke-width:0.75;stroke-linecap:butt;stroke-linejoin:miter;stroke-miterlimit:4;stroke-dasharray:none;stroke-opacity:1"
       transform="scale(1.3333333)" />
    <path
       id="path51"
       d="m 152.594,149.324 95.472,-1.383"
       style="fill:none;stroke:#ff0000;stroke-width:2.25;stroke-linecap:butt;stroke-linejoin:miter;stroke-miterlimit:4;stroke-dasharray:none;stroke-opacity:1"
       transform="scale(1.3333333)" />
    <path
       id="path52"
       d="m 252.953,155.664 -30.164,61.402"
       style="fill:none;stroke:#000000;stroke-width:0.75;stroke-linecap:butt;stroke-linejoin:miter;stroke-miterlimit:4;stroke-dasharray:none;stroke-opacity:1"
       transform="scale(1.3333333)" />
    <path
       id="path53"
       d="M 212.77,218.719 150.02,155.648"
       style="fill:none;stroke:#000000;stroke-width:0.75;stroke-linecap:butt;stroke-linejoin:miter;stroke-miterlimit:4;stroke-dasharray:none;stroke-opacity:1"
       transform="scale(1.3333333)" />
    <path
       id="path54"
       d="m 283.191,190.047 -56.574,30.699"
       style="fill:none;stroke:#000000;stroke-width:0.75;stroke-linecap:butt;stroke-linejoin:miter;stroke-miterlimit:4;stroke-dasharray:none;stroke-opacity:1"
       transform="scale(1.3333333)" />
    <path
       id="path55"
       d="m 262.637,154.332 22.41,25.031"
       style="fill:none;stroke:#000000;stroke-width:0.75;stroke-linecap:butt;stroke-linejoin:miter;stroke-miterlimit:4;stroke-dasharray:none;stroke-opacity:1"
       transform="scale(1.3333333)" />
    <path
       id="path56"
       d="m 354.133,154.277 -55.438,27.692"
       style="fill:none;stroke:#000000;stroke-width:0.75;stroke-linecap:butt;stroke-linejoin:miter;stroke-miterlimit:4;stroke-dasharray:none;stroke-opacity:1"
       transform="scale(1.3333333)" />
    <path
       id="path57"
       d="m 221.492,233.277 14.43,47.157"
       style="fill:none;stroke:#000000;stroke-width:0.75;stroke-linecap:butt;stroke-linejoin:miter;stroke-miterlimit:4;stroke-dasharray:none;stroke-opacity:1"
       transform="scale(1.3333333)" />
    <path
       id="path58"
       d="m 245.789,283.996 47.27,-31.039"
       style="fill:none;stroke:#000000;stroke-width:0.75;stroke-linecap:butt;stroke-linejoin:miter;stroke-miterlimit:4;stroke-dasharray:none;stroke-opacity:1"
       transform="scale(1.3333333)" />
    <path
       id="path59"
       d="M 299.047,239.516 292.191,194.52"
       style="fill:none;stroke:#000000;stroke-width:0.75;stroke-linecap:butt;stroke-linejoin:miter;stroke-miterlimit:4;stroke-dasharray:none;stroke-opacity:1"
       transform="scale(1.3333333)" />
    <path
       id="path60"
       d="m 227.34,227.316 64.617,18.442"
       style="fill:none;stroke:#000000;stroke-width:0.75;stroke-linecap:butt;stroke-linejoin:miter;stroke-miterlimit:4;stroke-dasharray:none;stroke-opacity:1"
       transform="scale(1.3333333)" />
    <path
       id="path61"
       d="m 307.781,252.785 63.645,39.692"
       style="fill:none;stroke:#000000;stroke-width:0.75;stroke-linecap:butt;stroke-linejoin:miter;stroke-miterlimit:4;stroke-dasharray:none;stroke-opacity:1"
       transform="scale(1.3333333)" />
    <path
       id="path62"
       d="m 383.867,289.945 29.321,-41.73"
       style="fill:none;stroke:#000000;stroke-width:0.75;stroke-linecap:butt;stroke-linejoin:miter;stroke-miterlimit:4;stroke-dasharray:none;stroke-opacity:1"
       transform="scale(1.3333333)" />
    <path
       id="path63"
       d="M 409.484,241.586 309.09,247.633"
       style="fill:none;stroke:#000000;stroke-width:0.75;stroke-linecap:butt;stroke-linejoin:miter;stroke-miterlimit:4;stroke-dasharray:none;stroke-opacity:1"
       transform="scale(1.3333333)" />
    <path
       id="path64"
       d="m 424.305,247.328 31.054,31.926"
       style="fill:none;stroke:#000000;stroke-width:0.75;stroke-linecap:butt;stroke-linejoin:miter;stroke-miterlimit:4;stroke-dasharray:none;stroke-opacity:1"
       transform="scale(1.3333333)" />
    <path
       id="path65"
       d="m 425.387,236.066 39.679,-27.621"
       style="fill:none;stroke:#000000;stroke-width:0.75;stroke-linecap:butt;stroke-linejoin:miter;stroke-miterlimit:4;stroke-dasharray:none;stroke-opacity:1"
       transform="scale(1.3333333)" />
    <path
       id="path66"
       d="m 471.102,212.117 -8.508,64.735"
       style="fill:none;stroke:#000000;stroke-width:0.75;stroke-linecap:butt;stroke-linejoin:miter;stroke-miterlimit:4;stroke-dasharray:none;stroke-opacity:1"
       transform="scale(1.3333333)" />
    <path
       id="path67"
       d="m 470.68,194.848 -9.383,-51.672"
       style="fill:none;stroke:#000000;stroke-width:0.75;stroke-linecap:butt;stroke-linejoin:miter;stroke-miterlimit:4;stroke-dasharray:none;stroke-opacity:1"
       transform="scale(1.3333333)" />
    <path
       id="path68"
       d="m 421.387,232.914 35.172,-90.195"
       style="fill:none;stroke:#000000;stroke-width:0.75;stroke-linecap:butt;stroke-linejoin:miter;stroke-miterlimit:4;stroke-dasharray:none;stroke-opacity:1"
       transform="scale(1.3333333)" />
    <path
       id="path69"
       d="m 451.105,135.965 -80.523,13.012"
       style="fill:none;stroke:#000000;stroke-width:0.75;stroke-linecap:butt;stroke-linejoin:miter;stroke-miterlimit:4;stroke-dasharray:none;stroke-opacity:1"
       transform="scale(1.3333333)" />
    <path
       id="path70"
       d="m 364.285,141.941 15.227,-55.07"
       style="fill:#000000;stroke:#ff0000;stroke-width:2.25000006;stroke-linecap:butt;stroke-linejoin:miter;stroke-miterlimit:4;stroke-dasharray:none;stroke-opacity:1"
       transform="scale(1.3333333)" />
    <path
       id="path71"
       d="m 353.215,150.156 -87.672,-2.129"
       style="fill:none;stroke:#ff0000;stroke-width:2.25;stroke-linecap:butt;stroke-linejoin:miter;stroke-miterlimit:4;stroke-dasharray:none;stroke-opacity:1"
       transform="scale(1.3333333)" />
    <path
       id="path72"
       d="m 388.934,83.555 63.707,45.906"
       style="fill:none;stroke:#000000;stroke-width:0.75;stroke-linecap:butt;stroke-linejoin:miter;stroke-miterlimit:4;stroke-dasharray:none;stroke-opacity:1"
       transform="scale(1.3333333)" />
    <path
       id="path73"
       d="m 460.324,125.848 5.395,-79.535"
       style="fill:none;stroke:#000000;stroke-width:0.75;stroke-linecap:butt;stroke-linejoin:miter;stroke-miterlimit:4;stroke-dasharray:none;stroke-opacity:1"
       transform="scale(1.3333333)" />
    <path
       id="path74"
       d="m 387.5,295.887 65.297,-9.153"
       style="fill:none;stroke:#000000;stroke-width:0.75;stroke-linecap:butt;stroke-linejoin:miter;stroke-miterlimit:4;stroke-dasharray:none;stroke-opacity:1"
       transform="scale(1.3333333)" />
    <path
       id="path75"
       d="M 458.438,41.395 389.711,74.637"
       style="fill:#ff0000;fill-opacity:1;fill-rule:evenodd;stroke:#ff0000;stroke-width:2.25000006;stroke-linecap:butt;stroke-linejoin:miter;stroke-miterlimit:4;stroke-dasharray:none;stroke-opacity:1"
       transform="scale(1.3333333)" />
    <path
       id="path76"
       d="m 247.207,289.313 122.91,7.273"
       style="fill:none;stroke:#000000;stroke-width:0.75;stroke-linecap:butt;stroke-linejoin:miter;stroke-miterlimit:4;stroke-dasharray:none;stroke-opacity:1"
       transform="scale(1.3333333)" />
    <path
       style="fill:none;fill-rule:evenodd;stroke:#000000;stroke-width:1px;stroke-linecap:butt;stroke-linejoin:miter;stroke-opacity:1"
       d="M 388.99932,236.23448 400.33135,123.24934"
       id="path78"
       inkscape:connector-type="polyline"
       inkscape:connector-curvature="0"
       inkscape:connection-start="#path6"
       inkscape:connection-end="#path11" />
    <path
       style="fill:none;fill-rule:evenodd;stroke:#000000;stroke-width:1px;stroke-linecap:butt;stroke-linejoin:miter;stroke-opacity:1"
       d="M 313.29641,79.873015 339.59843,185.77372"
       id="path79"
       inkscape:connector-type="polyline"
       inkscape:connector-curvature="0"
       inkscape:connection-start="#path10"
       inkscape:connection-end="#path9" />
    <path
       style="fill:none;fill-rule:evenodd;stroke:#000000;stroke-width:1px;stroke-linecap:butt;stroke-linejoin:miter;stroke-opacity:1"
       d="M 323.26497,374.67201 382.54739,258.22187"
       id="path80"
       inkscape:connector-type="polyline"
       inkscape:connector-curvature="0"
       inkscape:connection-start="#path33"
       inkscape:connection-end="#path6" />
  </g>
</svg>
